<svg width="40" height="40" viewBox="0 0 40 40" fill="none" xmlns="http://www.w3.org/2000/svg">
<path d="M20 40C31.0457 40 40 31.0457 40 20C40 8.9543 31.0457 0 20 0C8.9543 0 0 8.9543 0 20C0 31.0457 8.9543 40 20 40Z" fill="#F6F6FC"/>
<path fill-rule="evenodd" clip-rule="evenodd" d="M9.04261 19.7836C14.8711 17.2524 18.7512 15.5705 20.6996 14.7545C26.2449 12.4398 27.4106 12.0401 28.16 12.0234C28.3265 12.0234 28.6929 12.0567 28.9427 12.2566C29.1425 12.4231 29.1925 12.6396 29.2258 12.8061C29.2591 12.9726 29.2924 13.3224 29.2591 13.5888C28.9594 16.7528 27.6604 24.4298 26.9943 27.9602C26.7112 29.4589 26.1617 29.9585 25.6288 30.0084C24.4631 30.1084 23.5805 29.2424 22.4648 28.5097C20.6996 27.3607 19.7171 26.6446 18.0018 25.5122C16.0201 24.2133 17.3024 23.4972 18.4348 22.3315C18.7345 22.0318 23.8469 17.369 23.9469 16.9527C23.9635 16.9027 23.9635 16.7029 23.8469 16.603C23.7304 16.503 23.5638 16.5363 23.4306 16.5696C23.2474 16.603 20.4498 18.4681 15.0043 22.1483C14.205 22.6979 13.4889 22.9643 12.8394 22.9477C12.1234 22.931 10.7579 22.548 9.72538 22.2149C8.47642 21.8153 7.47725 21.5988 7.56052 20.8994C7.61047 20.533 8.11006 20.1667 9.04261 19.7836Z" fill="#29A9EA"/>
</svg>
