<svg width="56" height="57" viewBox="0 0 56 57" fill="none" xmlns="http://www.w3.org/2000/svg">
<rect y="0.36377" width="56" height="56" rx="28" fill="#48A7FF"/>
<path d="M42.5257 18.2269L41.9742 28.5465C41.9289 29.4001 41.5815 30.2119 40.9924 30.8403C40.4034 31.4686 39.6102 31.8736 38.7513 31.9846L21.0315 34.2808L22.1671 37.8122L38.5934 35.6835C39.3723 35.5822 40.1628 35.7281 40.8504 36.1C41.5381 36.472 42.0871 37.0507 42.4182 37.7524C42.7492 38.4541 42.8451 39.2424 42.6918 40.003C42.5385 40.7637 42.1441 41.4573 41.5656 41.9834C40.9871 42.5096 40.2546 42.8409 39.4742 42.9295C38.6937 43.0181 37.9059 42.8593 37.2246 42.4761C36.5433 42.0929 36.004 41.5053 35.6848 40.7982C35.3656 40.0912 35.2831 39.3014 35.4491 38.5433L26.472 39.7066C26.765 40.2775 26.9003 40.915 26.8642 41.5549C26.8281 42.1949 26.6219 42.8147 26.2664 43.3522C25.9109 43.8896 25.4186 44.3257 24.839 44.6165C24.2595 44.9073 23.613 45.0426 22.9648 45.0088C22.3166 44.9751 21.6893 44.7734 21.1463 44.424C20.6032 44.0747 20.1633 43.5901 19.871 43.0189C19.5787 42.4477 19.4442 41.8101 19.481 41.1702C19.5178 40.5303 19.7247 39.9106 20.0808 39.3736L12.8689 16.9461L10.1108 17.3035C9.78664 17.3455 9.45927 17.2587 9.20072 17.0623C8.94218 16.8658 8.77365 16.5758 8.7322 16.256C8.69075 15.9361 8.77979 15.6127 8.97972 15.3569C9.17965 15.101 9.4741 14.9337 9.79829 14.8916L12.5564 14.5342C13.1289 14.4598 13.7091 14.5861 14.1957 14.8911C14.6822 15.1961 15.0441 15.6604 15.2184 16.203L16.4893 20.1554L41.1388 16.9612C41.3178 16.938 41.4997 16.9539 41.6715 17.0077C41.8434 17.0616 42.001 17.1521 42.1333 17.2728C42.2656 17.3935 42.3693 17.5416 42.4371 17.7065C42.5049 17.8713 42.5351 18.049 42.5257 18.2269Z" fill="#CCEDFF"/>
</svg>
