<svg width="56" height="56" viewBox="0 0 56 56" fill="none" xmlns="http://www.w3.org/2000/svg">
<g clip-path="url(#clip0_70_4365)">
<g clip-path="url(#clip1_70_4365)">
<rect width="56.1163" height="56.1163" transform="translate(0 -0.0581055)" fill="#8265F8"/>
<circle cx="40.4002" cy="41.3235" r="31.9668" fill="#F4BE00"/>
<circle cx="40.3993" cy="41.3243" r="21.3661" fill="#FFDF38"/>
<path d="M40.3005 32.6901C40.7617 31.8196 41.6696 31.2275 42.7142 31.2275C43.7588 31.2275 44.6667 31.8196 45.1278 32.6901" stroke="#E3B100" stroke-width="1.22949" stroke-linecap="round" stroke-linejoin="round"/>
<path d="M29.6768 32.6903C30.1379 31.8198 31.0458 31.2278 32.0904 31.2278C33.135 31.2278 34.0429 31.8198 34.5041 32.6903" stroke="#E3B100" stroke-width="1.22949" stroke-linecap="round" stroke-linejoin="round"/>
<path d="M39.8101 34.6971C39.3489 35.5676 38.441 36.1597 37.3964 36.1597C36.3518 36.1597 35.4439 35.5676 34.9828 34.6971" stroke="#E3B100" stroke-width="1.22949" stroke-linecap="round" stroke-linejoin="round"/>
<path d="M17.8161 47.048C17.8161 47.048 12.1634 46.559 13.4143 44.4253C14.6651 42.2916 17.9757 45.1478 18.6345 46.0415C18.6345 46.0415 17.0784 41.2469 18.8436 41.0204C20.6087 40.7938 19.7654 45.2785 19.4712 45.6006C19.4712 45.6006 21.8451 41.7181 23.6454 43.0911C25.4457 44.4642 21.4095 46.8924 19.9767 46.7358C19.9767 46.7358 24.6545 47.2776 23.2645 49.2372C21.8745 51.1967 18.9347 47.4282 18.9347 47.4282C18.9347 47.4282 17.2924 51.5717 15.0623 50.1321C12.8323 48.6924 17.8161 47.048 17.8161 47.048Z" fill="#FFF8D5"/>
<path d="M10.9937 32.8942C10.9937 32.8942 16.2313 29.6274 13.71 28.2884C11.1887 26.9493 9.81003 31.1614 9.69303 31.8319C9.69303 31.8319 10.4418 26.6335 8.2754 26.6335C6.10899 26.6335 6.97478 31.0835 8.19546 32.0288C8.19546 32.0288 3.1938 29.3896 3.11385 32.5804C3.0339 35.7712 8.51135 33.9175 8.74729 33.4458C8.74729 33.4458 6.54189 38.1238 9.22114 38.5253C11.9004 38.9269 10.4808 34.0754 10.4808 34.0754C10.4808 34.0754 16.3112 36.8315 17.0191 34.7849C17.7269 32.7383 12.3313 32.3426 10.9937 32.8942Z" fill="#FFF8D5"/>
<path d="M44.0647 18.7724C44.0647 18.7724 42.2104 17.177 43.7765 15.617C45.3426 14.0569 46.127 16.6967 46.3118 18.2018C46.3118 18.2018 46.1825 15.0765 48.533 15.4364C50.8834 15.7963 49.1455 18.6834 48.2901 19.288C48.2901 19.288 50.5552 18.347 51.178 20.1806C51.8009 22.0142 50.3575 22.929 48.0626 21.8349C48.0626 21.8349 50.0384 24.3084 48.0536 25.4392C46.0688 26.57 45.8569 23.0272 45.8569 23.0272C45.8569 23.0272 45.2431 25.3646 43.1524 24.7417C41.0617 24.1187 42.9353 21.7603 43.7817 21.4697C43.7817 21.4697 42.3435 22.2262 41.3124 21.0078C40.2812 19.7893 40.6275 17.4519 44.0647 18.7724Z" fill="#FFF8D5"/>
</g>
</g>
<defs>
<clipPath id="clip0_70_4365">
<rect width="56" height="56" rx="28" fill="white"/>
</clipPath>
<clipPath id="clip1_70_4365">
<rect width="56.1163" height="56.1163" fill="white" transform="translate(0 -0.0581055)"/>
</clipPath>
</defs>
</svg>
