<svg width="188" height="86" viewBox="0 0 188 86" fill="none" xmlns="http://www.w3.org/2000/svg">
<path d="M94.5 52.25V79.75" stroke="#9CCAFF" stroke-width="3" stroke-linejoin="round"/>
<path d="M83.25 68.5L94.5 79.75L105.75 68.5" stroke="#9CCAFF" stroke-width="3" stroke-linejoin="round"/>
<path d="M5.09125 29.3182V25.7727H6.42079C7.01928 25.7727 7.5117 25.6856 7.89807 25.5114C8.28443 25.3371 8.59504 25.0871 8.82988 24.7614C9.07231 24.4356 9.27307 24.0568 9.43216 23.625L9.73898 22.8409L1.42079 5.72727L5.82988 5.72727L11.6253 18.1818L16.6367 5.72727L20.9776 5.72727L12.9549 24.7045C12.5837 25.5227 12.1556 26.2841 11.6708 26.9886C11.1859 27.6856 10.5534 28.25 9.77307 28.6818C9.00034 29.1061 7.99276 29.3182 6.75034 29.3182H5.09125ZM22.3207 24.2159H26.4003C26.4382 24.8674 26.7298 25.3712 27.2753 25.7273C27.8207 26.0833 28.5291 26.2614 29.4003 26.2614C30.2866 26.2614 31.0328 26.0682 31.6389 25.6818C32.2525 25.2879 32.5594 24.6932 32.5594 23.8977C32.5594 23.428 32.4419 23.0152 32.2071 22.6591C31.9722 22.2955 31.6427 22.0152 31.2185 21.8182C30.7942 21.6212 30.2942 21.5227 29.7185 21.5227H27.048V18.6023H29.7185C30.5745 18.6023 31.2222 18.4053 31.6616 18.0114C32.1086 17.6174 32.3321 17.1212 32.3321 16.5227C32.3321 15.8788 32.0972 15.3561 31.6275 14.9545C31.1654 14.553 30.5253 14.3523 29.7071 14.3523C28.8889 14.3523 28.2071 14.5379 27.6616 14.9091C27.1238 15.2803 26.8435 15.7576 26.8207 16.3409H22.7639C22.7791 15.3258 23.0821 14.4432 23.673 13.6932C24.2715 12.9432 25.0745 12.3598 26.0821 11.9432C27.0972 11.5265 28.2412 11.3182 29.5139 11.3182C30.8775 11.3182 32.0556 11.5227 33.048 11.9318C34.0404 12.3409 34.8056 12.9129 35.3435 13.6477C35.8813 14.375 36.1503 15.2311 36.1503 16.2159C36.1503 17.1629 35.8548 17.947 35.2639 18.5682C34.673 19.1818 33.8775 19.6212 32.8775 19.8864V20.0682C33.5669 20.1061 34.1882 20.303 34.7412 20.6591C35.2942 21.0076 35.7336 21.4811 36.0594 22.0795C36.3851 22.678 36.548 23.3712 36.548 24.1591C36.548 25.2273 36.2412 26.1515 35.6275 26.9318C35.0139 27.7045 34.1692 28.2992 33.0935 28.7159C32.0253 29.1326 30.8018 29.3409 29.423 29.3409C28.0821 29.3409 26.8813 29.1402 25.8207 28.7386C24.7677 28.3295 23.9306 27.7424 23.3094 26.9773C22.6882 26.2121 22.3586 25.2917 22.3207 24.2159ZM51.2633 18.5682V21.9432H41.9678V18.5682H51.2633ZM43.2405 11.5455L43.2405 29H39.2746L39.2746 11.5455H43.2405ZM53.9565 11.5455L53.9565 29H50.0019L50.0019 11.5455H53.9565ZM62.6291 29.3523C61.5231 29.3523 60.5268 29.1553 59.6405 28.7614C58.7617 28.3598 58.0647 27.7689 57.5496 26.9886C57.042 26.2083 56.7882 25.2462 56.7882 24.1023C56.7882 23.1174 56.97 22.303 57.3337 21.6591C57.6973 21.0152 58.1935 20.5 58.8223 20.1136C59.4511 19.7273 60.1594 19.4356 60.9473 19.2386C61.7427 19.0341 62.5647 18.8864 63.4132 18.7955C64.4359 18.6894 65.2655 18.5947 65.9018 18.5114C66.5382 18.4205 67.0003 18.2841 67.2882 18.1023C67.5837 17.9129 67.7314 17.6212 67.7314 17.2273V17.1591C67.7314 16.303 67.4776 15.6402 66.97 15.1705C66.4624 14.7008 65.7314 14.4659 64.7768 14.4659C63.7693 14.4659 62.97 14.6856 62.3791 15.125C61.7958 15.5644 61.4018 16.0833 61.1973 16.6818L57.3564 16.1364C57.6594 15.0758 58.1594 14.1894 58.8564 13.4773C59.5534 12.7576 60.4056 12.2197 61.4132 11.8636C62.4208 11.5 63.5344 11.3182 64.7541 11.3182C65.595 11.3182 66.4321 11.4167 67.2655 11.6136C68.0988 11.8106 68.8602 12.1364 69.5496 12.5909C70.239 13.0379 70.792 13.6477 71.2087 14.4205C71.6329 15.1932 71.845 16.1591 71.845 17.3182V29H67.8905V26.6023H67.7541C67.5041 27.0871 67.1518 27.5417 66.6973 27.9659C66.2503 28.3826 65.6859 28.7197 65.0041 28.9773C64.3299 29.2273 63.5382 29.3523 62.6291 29.3523ZM63.6973 26.3295C64.5231 26.3295 65.239 26.1667 65.845 25.8409C66.4511 25.5076 66.917 25.0682 67.2427 24.5227C67.5761 23.9773 67.7427 23.3826 67.7427 22.7386V20.6818C67.614 20.7879 67.3943 20.8864 67.0837 20.9773C66.7806 21.0682 66.4397 21.1477 66.0609 21.2159C65.6821 21.2841 65.3071 21.3447 64.9359 21.3977C64.5647 21.4508 64.2427 21.4962 63.97 21.5341C63.3564 21.6174 62.8071 21.7538 62.3223 21.9432C61.8374 22.1326 61.4549 22.3977 61.1746 22.7386C60.8943 23.072 60.7541 23.5038 60.7541 24.0341C60.7541 24.7917 61.0306 25.3636 61.5837 25.75C62.1367 26.1364 62.8412 26.3295 63.6973 26.3295ZM79.4353 23.4318L86.4239 11.5455H90.6512V29H86.6739V17.1023L79.708 29L75.4694 29V11.5455H79.4353V23.4318ZM85.2989 5.54545H88.3785C88.3785 6.87121 87.8974 7.94697 86.9353 8.77273C85.9808 9.59091 84.6853 10 83.0489 10C81.4277 10 80.1361 9.59091 79.1739 8.77273C78.2194 7.94697 77.7459 6.87121 77.7535 5.54545L80.8103 5.54545C80.8103 6.09091 80.977 6.57954 81.3103 7.01136C81.6512 7.4356 82.2308 7.64773 83.0489 7.64773C83.852 7.64773 84.4239 7.4356 84.7648 7.01136C85.1133 6.58712 85.2914 6.09848 85.2989 5.54545ZM92.4091 14.9205V11.5455L107.682 11.5455V14.9205L102.034 14.9205V29H98.0568V14.9205H92.4091ZM117.454 29.3409C115.704 29.3409 114.193 28.9773 112.92 28.25C111.655 27.5152 110.681 26.4773 109.999 25.1364C109.318 23.7879 108.977 22.2008 108.977 20.375C108.977 18.5795 109.318 17.0038 109.999 15.6477C110.689 14.2841 111.651 13.2235 112.886 12.4659C114.121 11.7008 115.571 11.3182 117.238 11.3182C118.314 11.3182 119.329 11.4924 120.283 11.8409C121.246 12.1818 122.094 12.7121 122.829 13.4318C123.571 14.1515 124.155 15.0682 124.579 16.1818C125.003 17.2879 125.215 18.6061 125.215 20.1364V21.3977L110.908 21.3977V18.625L121.272 18.625C121.265 17.8371 121.094 17.1364 120.761 16.5227C120.427 15.9015 119.961 15.4129 119.363 15.0568C118.772 14.7008 118.083 14.5227 117.295 14.5227C116.454 14.5227 115.715 14.7273 115.079 15.1364C114.443 15.5379 113.946 16.0682 113.59 16.7273C113.242 17.3788 113.064 18.0947 113.056 18.875V21.2955C113.056 22.3106 113.242 23.1818 113.613 23.9091C113.984 24.6288 114.503 25.1818 115.17 25.5682C115.836 25.947 116.617 26.1364 117.511 26.1364C118.109 26.1364 118.651 26.053 119.136 25.8864C119.621 25.7121 120.041 25.4583 120.397 25.125C120.753 24.7917 121.022 24.3788 121.204 23.8864L125.045 24.3182C124.802 25.3333 124.34 26.2197 123.658 26.9773C122.984 27.7273 122.121 28.3106 121.068 28.7273C120.015 29.1364 118.81 29.3409 117.454 29.3409ZM135.609 29V11.5455H139.723V18.5909L141.223 18.5909L146.473 11.5455H151.427L144.961 20.1136L151.495 29H146.518L141.734 22.4205L139.723 22.4205V29H135.609ZM158.338 29.3523C157.232 29.3523 156.236 29.1553 155.35 28.7614C154.471 28.3598 153.774 27.7689 153.259 26.9886C152.751 26.2083 152.497 25.2462 152.497 24.1023C152.497 23.1174 152.679 22.303 153.043 21.6591C153.407 21.0152 153.903 20.5 154.532 20.1136C155.16 19.7273 155.869 19.4356 156.657 19.2386C157.452 19.0341 158.274 18.8864 159.122 18.7955C160.145 18.6894 160.975 18.5947 161.611 18.5114C162.247 18.4205 162.71 18.2841 162.997 18.1023C163.293 17.9129 163.441 17.6212 163.441 17.2273V17.1591C163.441 16.303 163.187 15.6402 162.679 15.1705C162.172 14.7008 161.441 14.4659 160.486 14.4659C159.479 14.4659 158.679 14.6856 158.088 15.125C157.505 15.5644 157.111 16.0833 156.907 16.6818L153.066 16.1364C153.369 15.0758 153.869 14.1894 154.566 13.4773C155.263 12.7576 156.115 12.2197 157.122 11.8636C158.13 11.5 159.244 11.3182 160.463 11.3182C161.304 11.3182 162.141 11.4167 162.975 11.6136C163.808 11.8106 164.569 12.1364 165.259 12.5909C165.948 13.0379 166.501 13.6477 166.918 14.4205C167.342 15.1932 167.554 16.1591 167.554 17.3182V29H163.6V26.6023H163.463C163.213 27.0871 162.861 27.5417 162.407 27.9659C161.96 28.3826 161.395 28.7197 160.713 28.9773C160.039 29.2273 159.247 29.3523 158.338 29.3523ZM159.407 26.3295C160.232 26.3295 160.948 26.1667 161.554 25.8409C162.16 25.5076 162.626 25.0682 162.952 24.5227C163.285 23.9773 163.452 23.3826 163.452 22.7386V20.6818C163.323 20.7879 163.104 20.8864 162.793 20.9773C162.49 21.0682 162.149 21.1477 161.77 21.2159C161.391 21.2841 161.016 21.3447 160.645 21.3977C160.274 21.4508 159.952 21.4962 159.679 21.5341C159.066 21.6174 158.516 21.7538 158.032 21.9432C157.547 22.1326 157.164 22.3977 156.884 22.7386C156.604 23.072 156.463 23.5038 156.463 24.0341C156.463 24.7917 156.74 25.3636 157.293 25.75C157.846 26.1364 158.55 26.3295 159.407 26.3295ZM171.179 29V11.5455H175.292V18.5909H176.792L182.042 11.5455H186.997L180.531 20.1136L187.065 29L182.088 29L177.304 22.4205H175.292V29H171.179Z" fill="#9CCAFF"/>
</svg>
