<svg width="222" height="48" viewBox="0 0 222 48" fill="none" xmlns="http://www.w3.org/2000/svg">
<path fill-rule="evenodd" clip-rule="evenodd" d="M2 18C10.8366 18 18 10.8366 18 2C18 1.93551 17.9996 1.87111 17.9989 1.8068C17.9875 0.84466 18.7259 0 19.6881 0H28.4386C29.2786 0 29.9804 0.649625 29.9954 1.48944C29.9985 1.65926 30 1.82945 30 2C30 17.464 17.464 30 2 30C1.82945 30 1.65926 29.9985 1.48944 29.9954C0.649625 29.9804 0 29.2786 0 28.4386V19.6881C0 18.7259 0.84466 17.9875 1.8068 17.9989C1.87111 17.9996 1.93551 18 2 18ZM18 46.4V33.8627C18 33.4384 18.1686 33.0314 18.4686 32.7314L32.7314 18.4686C33.0314 18.1686 33.4384 18 33.8627 18H46.4C47.2837 18 48 18.7163 48 19.6V28.4C48 29.2837 47.2837 30 46.4 30H31.6C30.7163 30 30 30.7163 30 31.6V46.4C30 47.2837 29.2837 48 28.4 48H19.6C18.7163 48 18 47.2837 18 46.4Z" fill="white"/>
<path d="M85.7028 12V35.6287H80.4835V29.3502H75.6557L71.6107 35.6287H66.0326L70.7952 28.5063C69.2512 27.8537 68.066 26.8748 67.2396 25.5696C66.4132 24.2419 66 22.6554 66 20.8101C66 18.9873 66.4023 17.4233 67.207 16.1181C68.0116 14.7904 69.1533 13.7778 70.6321 13.0802C72.1109 12.3601 73.8507 12 75.8514 12H85.7028ZM75.9819 16.4557C74.4813 16.4557 73.3287 16.8158 72.5241 17.5359C71.7412 18.256 71.3498 19.3249 71.3498 20.7426C71.3498 22.1153 71.7303 23.173 72.4915 23.9156C73.2526 24.6582 74.3726 25.0295 75.8514 25.0295H80.4835V16.4557H75.9819Z" fill="white"/>
<path d="M103.917 26.1435C105.983 26.8636 107.016 28.3038 107.016 30.4641C107.016 32.1069 106.418 33.3783 105.222 34.2785C104.026 35.1786 102.243 35.6287 99.8723 35.6287H90.5102V17.4684H99.4809C101.677 17.4684 103.395 17.8847 104.635 18.7173C105.875 19.5274 106.494 20.6751 106.494 22.1603C106.494 23.0605 106.266 23.8594 105.809 24.557C105.374 25.2321 104.744 25.7609 103.917 26.1435ZM95.175 24.9283H99.0242C100.807 24.9283 101.699 24.2757 101.699 22.9705C101.699 21.6878 100.807 21.0464 99.0242 21.0464H95.175V24.9283ZM99.4483 32.0506C101.319 32.0506 102.254 31.3868 102.254 30.0591C102.254 29.3615 102.036 28.8551 101.601 28.5401C101.166 28.2025 100.481 28.0338 99.5461 28.0338H95.175V32.0506H99.4483Z" fill="white"/>
<path d="M131.484 12V35.6287H126.232V16.4557H115.924V35.6287H110.672V12H131.484Z" fill="white"/>
<path d="M153.063 17.4684V35.6287H147.974V21.789H142.429L142.266 24.9958C142.179 27.3812 141.961 29.3615 141.613 30.9367C141.265 32.512 140.7 33.7496 139.917 34.6498C139.134 35.5499 138.047 36 136.655 36C135.916 36 135.035 35.865 134.013 35.5949L134.274 31.2743C134.622 31.3193 134.872 31.3418 135.024 31.3418C135.785 31.3418 136.351 31.0605 136.72 30.4979C137.112 29.9128 137.373 29.1814 137.503 28.3038C137.634 27.4037 137.732 26.2222 137.797 24.7595L138.058 17.4684H153.063Z" fill="white"/>
<path d="M174.039 17.1983C175.822 17.1983 177.42 17.6034 178.834 18.4135C180.247 19.2011 181.357 20.3038 182.161 21.7215C182.966 23.1392 183.368 24.7482 183.368 26.5485C183.368 28.3488 182.966 29.9578 182.161 31.3755C181.357 32.7932 180.247 33.9072 178.834 34.7173C177.42 35.5049 175.822 35.8987 174.039 35.8987C172.495 35.8987 171.081 35.6062 169.798 35.0211C168.515 34.4135 167.449 33.5696 166.601 32.4895C165.753 31.3868 165.188 30.1266 164.905 28.7089H162.491V35.6287H157.435V17.4684H162.491V24.1519H164.938C165.438 22.0366 166.503 20.3488 168.134 19.0886C169.765 17.8284 171.733 17.1983 174.039 17.1983ZM174.039 31.5781C175.278 31.5781 176.3 31.128 177.105 30.2278C177.931 29.3052 178.345 28.0788 178.345 26.5485C178.345 24.9958 177.931 23.7693 177.105 22.8692C176.3 21.9691 175.278 21.519 174.039 21.519C172.777 21.519 171.733 21.9691 170.907 22.8692C170.102 23.7693 169.7 24.9958 169.7 26.5485C169.7 28.0788 170.102 29.3052 170.907 30.2278C171.733 31.128 172.777 31.5781 174.039 31.5781Z" fill="white"/>
<path d="M194.731 35.8987C192.86 35.8987 191.175 35.5049 189.674 34.7173C188.196 33.9072 187.032 32.7932 186.184 31.3755C185.358 29.9578 184.944 28.3488 184.944 26.5485C184.944 24.7482 185.358 23.1392 186.184 21.7215C187.032 20.3038 188.196 19.2011 189.674 18.4135C191.175 17.6034 192.86 17.1983 194.731 17.1983C196.579 17.1983 198.188 17.6034 199.558 18.4135C200.95 19.2011 201.961 20.3376 202.592 21.8228L198.645 24.0169C197.732 22.3516 196.416 21.519 194.698 21.519C193.371 21.519 192.273 21.9691 191.403 22.8692C190.533 23.7693 190.098 24.9958 190.098 26.5485C190.098 28.1013 190.533 29.3277 191.403 30.2278C192.273 31.128 193.371 31.5781 194.698 31.5781C196.438 31.5781 197.753 30.7454 198.645 29.0802L202.592 31.308C201.961 32.7482 200.95 33.8734 199.558 34.6835C198.188 35.4937 196.579 35.8987 194.731 35.8987Z" fill="white"/>
<path d="M222 26.616C222 26.6835 221.967 27.1561 221.902 28.0338H208.626C208.865 29.1589 209.43 30.0478 210.322 30.7004C211.213 31.353 212.323 31.6793 213.649 31.6793C214.563 31.6793 215.367 31.5443 216.063 31.2743C216.781 30.9817 217.444 30.5316 218.053 29.9241L220.76 32.962C219.108 34.9198 216.694 35.8987 213.519 35.8987C211.54 35.8987 209.789 35.5049 208.267 34.7173C206.744 33.9072 205.57 32.7932 204.744 31.3755C203.917 29.9578 203.504 28.3488 203.504 26.5485C203.504 24.7707 203.906 23.173 204.711 21.7553C205.538 20.3151 206.657 19.2011 208.071 18.4135C209.506 17.6034 211.105 17.1983 212.866 17.1983C214.584 17.1983 216.139 17.5809 217.531 18.346C218.923 19.1111 220.01 20.2138 220.793 21.654C221.598 23.0717 222 24.7257 222 26.616ZM212.899 21.1814C211.746 21.1814 210.779 21.519 209.996 22.1941C209.213 22.8692 208.734 23.7918 208.56 24.962H217.205C217.031 23.8143 216.552 22.903 215.769 22.2278C214.987 21.5302 214.03 21.1814 212.899 21.1814Z" fill="white"/>
</svg>
