<svg width="40" height="40" viewBox="0 0 40 40" fill="none" xmlns="http://www.w3.org/2000/svg">
<path d="M20 40C31.0457 40 40 31.0457 40 20C40 8.9543 31.0457 0 20 0C8.9543 0 0 8.9543 0 20C0 31.0457 8.9543 40 20 40Z" fill="#F6F6FC"/>
<path fill-rule="evenodd" clip-rule="evenodd" d="M10.8341 12.5H7.91675C7.08322 12.5 6.9165 12.8923 6.9165 13.3248C6.9165 14.0974 7.90555 17.929 11.5217 22.9966C13.9324 26.4573 17.3289 28.3333 20.4197 28.3333C22.2741 28.3333 22.5035 27.9167 22.5035 27.199V24.5833C22.5035 23.75 22.6792 23.5837 23.2663 23.5837C23.6991 23.5837 24.4408 23.8 26.1717 25.4686C28.1498 27.4462 28.4758 28.3333 29.5884 28.3333H32.5058C33.3393 28.3333 33.7561 27.9167 33.5157 27.0944C33.2526 26.2749 32.3082 25.0858 31.055 23.6764C30.375 22.873 29.3551 22.0078 29.046 21.5752C28.6133 21.019 28.7369 20.7717 29.046 20.2774C29.046 20.2774 32.6003 15.2716 32.9713 13.5722C33.1567 12.9541 32.9713 12.5 32.089 12.5H29.1717C28.4299 12.5 28.0879 12.8923 27.9024 13.3248C27.9024 13.3248 26.4189 16.9402 24.3173 19.2886C23.6373 19.9683 23.3282 20.1847 22.9573 20.1847C22.7718 20.1847 22.5034 19.9683 22.5034 19.3504V13.5722C22.5034 12.8305 22.2882 12.5 21.6699 12.5H17.0855C16.622 12.5 16.3432 12.8442 16.3432 13.1704C16.3432 13.8734 17.394 14.0356 17.5023 16.0132V20.3083C17.5023 21.25 17.3322 21.4208 16.9613 21.4208C15.9723 21.4208 13.5666 17.7893 12.1398 13.6339C11.8602 12.8263 11.5797 12.5 10.8341 12.5Z" fill="#2787F5"/>
</svg>
